<mxfile host="Electron" agent="Mozilla/5.0 (Windows NT 10.0; Win64; x64) AppleWebKit/537.36 (KHTML, like Gecko) draw.io/24.7.17 Chrome/128.0.6613.36 Electron/32.0.1 Safari/537.36" version="24.7.17">
  <diagram name="Seite-1" id="4VhsXRwpozqBJ4YJXbb2">
    <mxGraphModel dx="875" dy="518" grid="1" gridSize="10" guides="1" tooltips="1" connect="1" arrows="1" fold="1" page="1" pageScale="1" pageWidth="1169" pageHeight="1654" math="0" shadow="0">
      <root>
        <mxCell id="0" />
        <mxCell id="1" parent="0" />
        <mxCell id="fc5pYNwBbescbVxhXiLX-26" style="edgeStyle=orthogonalEdgeStyle;rounded=0;orthogonalLoop=1;jettySize=auto;html=1;exitX=0.374;exitY=0.987;exitDx=0;exitDy=0;endArrow=none;endFill=0;startArrow=blockThin;startFill=0;exitPerimeter=0;" edge="1" parent="1" source="fc5pYNwBbescbVxhXiLX-4" target="fc5pYNwBbescbVxhXiLX-8">
          <mxGeometry relative="1" as="geometry" />
        </mxCell>
        <mxCell id="fc5pYNwBbescbVxhXiLX-1" value="User Interface" style="swimlane;fontStyle=1;align=center;verticalAlign=top;childLayout=stackLayout;horizontal=1;startSize=26;horizontalStack=0;resizeParent=1;resizeParentMax=0;resizeLast=0;collapsible=1;marginBottom=0;whiteSpace=wrap;html=1;" vertex="1" parent="1">
          <mxGeometry x="530" y="400" width="160" height="130" as="geometry">
            <mxRectangle x="430" y="190" width="120" height="30" as="alternateBounds" />
          </mxGeometry>
        </mxCell>
        <mxCell id="fc5pYNwBbescbVxhXiLX-2" value="+ field: type" style="text;strokeColor=none;fillColor=none;align=left;verticalAlign=top;spacingLeft=4;spacingRight=4;overflow=hidden;rotatable=0;points=[[0,0.5],[1,0.5]];portConstraint=eastwest;whiteSpace=wrap;html=1;" vertex="1" parent="fc5pYNwBbescbVxhXiLX-1">
          <mxGeometry y="26" width="160" height="26" as="geometry" />
        </mxCell>
        <mxCell id="fc5pYNwBbescbVxhXiLX-3" value="" style="line;strokeWidth=1;fillColor=none;align=left;verticalAlign=middle;spacingTop=-1;spacingLeft=3;spacingRight=3;rotatable=0;labelPosition=right;points=[];portConstraint=eastwest;strokeColor=inherit;" vertex="1" parent="fc5pYNwBbescbVxhXiLX-1">
          <mxGeometry y="52" width="160" height="8" as="geometry" />
        </mxCell>
        <mxCell id="fc5pYNwBbescbVxhXiLX-4" value="# save(): void&lt;div&gt;# load(): void&lt;/div&gt;&lt;div&gt;# compile(): void&lt;/div&gt;&lt;div&gt;# play(): void&lt;/div&gt;" style="text;strokeColor=none;fillColor=none;align=left;verticalAlign=top;spacingLeft=4;spacingRight=4;overflow=hidden;rotatable=0;points=[[0,0.5],[1,0.5]];portConstraint=eastwest;whiteSpace=wrap;html=1;" vertex="1" parent="fc5pYNwBbescbVxhXiLX-1">
          <mxGeometry y="60" width="160" height="70" as="geometry" />
        </mxCell>
        <mxCell id="fc5pYNwBbescbVxhXiLX-8" value="Guitartab" style="swimlane;fontStyle=1;align=center;verticalAlign=top;childLayout=stackLayout;horizontal=1;startSize=26;horizontalStack=0;resizeParent=1;resizeParentMax=0;resizeLast=0;collapsible=1;marginBottom=0;whiteSpace=wrap;html=1;" vertex="1" parent="1">
          <mxGeometry x="330" y="570" width="160" height="90" as="geometry">
            <mxRectangle x="430" y="190" width="120" height="30" as="alternateBounds" />
          </mxGeometry>
        </mxCell>
        <mxCell id="fc5pYNwBbescbVxhXiLX-9" value="- file: String" style="text;strokeColor=none;fillColor=none;align=left;verticalAlign=top;spacingLeft=4;spacingRight=4;overflow=hidden;rotatable=0;points=[[0,0.5],[1,0.5]];portConstraint=eastwest;whiteSpace=wrap;html=1;" vertex="1" parent="fc5pYNwBbescbVxhXiLX-8">
          <mxGeometry y="26" width="160" height="26" as="geometry" />
        </mxCell>
        <mxCell id="fc5pYNwBbescbVxhXiLX-10" value="" style="line;strokeWidth=1;fillColor=none;align=left;verticalAlign=middle;spacingTop=-1;spacingLeft=3;spacingRight=3;rotatable=0;labelPosition=right;points=[];portConstraint=eastwest;strokeColor=inherit;" vertex="1" parent="fc5pYNwBbescbVxhXiLX-8">
          <mxGeometry y="52" width="160" height="8" as="geometry" />
        </mxCell>
        <mxCell id="fc5pYNwBbescbVxhXiLX-11" value="- writeCSV(): void" style="text;strokeColor=none;fillColor=none;align=left;verticalAlign=top;spacingLeft=4;spacingRight=4;overflow=hidden;rotatable=0;points=[[0,0.5],[1,0.5]];portConstraint=eastwest;whiteSpace=wrap;html=1;" vertex="1" parent="fc5pYNwBbescbVxhXiLX-8">
          <mxGeometry y="60" width="160" height="30" as="geometry" />
        </mxCell>
        <mxCell id="fc5pYNwBbescbVxhXiLX-18" value="Sheet" style="swimlane;fontStyle=1;align=center;verticalAlign=top;childLayout=stackLayout;horizontal=1;startSize=26;horizontalStack=0;resizeParent=1;resizeParentMax=0;resizeLast=0;collapsible=1;marginBottom=0;whiteSpace=wrap;html=1;" vertex="1" parent="1">
          <mxGeometry x="730" y="570" width="160" height="90" as="geometry">
            <mxRectangle x="430" y="190" width="120" height="30" as="alternateBounds" />
          </mxGeometry>
        </mxCell>
        <mxCell id="fc5pYNwBbescbVxhXiLX-19" value="- file: String" style="text;strokeColor=none;fillColor=none;align=left;verticalAlign=top;spacingLeft=4;spacingRight=4;overflow=hidden;rotatable=0;points=[[0,0.5],[1,0.5]];portConstraint=eastwest;whiteSpace=wrap;html=1;" vertex="1" parent="fc5pYNwBbescbVxhXiLX-18">
          <mxGeometry y="26" width="160" height="26" as="geometry" />
        </mxCell>
        <mxCell id="fc5pYNwBbescbVxhXiLX-20" value="" style="line;strokeWidth=1;fillColor=none;align=left;verticalAlign=middle;spacingTop=-1;spacingLeft=3;spacingRight=3;rotatable=0;labelPosition=right;points=[];portConstraint=eastwest;strokeColor=inherit;" vertex="1" parent="fc5pYNwBbescbVxhXiLX-18">
          <mxGeometry y="52" width="160" height="8" as="geometry" />
        </mxCell>
        <mxCell id="fc5pYNwBbescbVxhXiLX-21" value="- writeCSV(): void" style="text;strokeColor=none;fillColor=none;align=left;verticalAlign=top;spacingLeft=4;spacingRight=4;overflow=hidden;rotatable=0;points=[[0,0.5],[1,0.5]];portConstraint=eastwest;whiteSpace=wrap;html=1;" vertex="1" parent="fc5pYNwBbescbVxhXiLX-18">
          <mxGeometry y="60" width="160" height="30" as="geometry" />
        </mxCell>
        <mxCell id="fc5pYNwBbescbVxhXiLX-22" value="Chord" style="swimlane;fontStyle=1;align=center;verticalAlign=top;childLayout=stackLayout;horizontal=1;startSize=26;horizontalStack=0;resizeParent=1;resizeParentMax=0;resizeLast=0;collapsible=1;marginBottom=0;whiteSpace=wrap;html=1;" vertex="1" parent="1">
          <mxGeometry x="530" y="570" width="160" height="100" as="geometry">
            <mxRectangle x="430" y="190" width="120" height="30" as="alternateBounds" />
          </mxGeometry>
        </mxCell>
        <mxCell id="fc5pYNwBbescbVxhXiLX-23" value="- file: String" style="text;strokeColor=none;fillColor=none;align=left;verticalAlign=top;spacingLeft=4;spacingRight=4;overflow=hidden;rotatable=0;points=[[0,0.5],[1,0.5]];portConstraint=eastwest;whiteSpace=wrap;html=1;" vertex="1" parent="fc5pYNwBbescbVxhXiLX-22">
          <mxGeometry y="26" width="160" height="26" as="geometry" />
        </mxCell>
        <mxCell id="fc5pYNwBbescbVxhXiLX-24" value="" style="line;strokeWidth=1;fillColor=none;align=left;verticalAlign=middle;spacingTop=-1;spacingLeft=3;spacingRight=3;rotatable=0;labelPosition=right;points=[];portConstraint=eastwest;strokeColor=inherit;" vertex="1" parent="fc5pYNwBbescbVxhXiLX-22">
          <mxGeometry y="52" width="160" height="8" as="geometry" />
        </mxCell>
        <mxCell id="fc5pYNwBbescbVxhXiLX-25" value="- writeCSV(): void&lt;div&gt;- saveChord(): void&lt;/div&gt;" style="text;strokeColor=none;fillColor=none;align=left;verticalAlign=top;spacingLeft=4;spacingRight=4;overflow=hidden;rotatable=0;points=[[0,0.5],[1,0.5]];portConstraint=eastwest;whiteSpace=wrap;html=1;" vertex="1" parent="fc5pYNwBbescbVxhXiLX-22">
          <mxGeometry y="60" width="160" height="40" as="geometry" />
        </mxCell>
        <mxCell id="fc5pYNwBbescbVxhXiLX-27" style="edgeStyle=orthogonalEdgeStyle;rounded=0;orthogonalLoop=1;jettySize=auto;html=1;exitX=0.5;exitY=0;exitDx=0;exitDy=0;entryX=0.505;entryY=1.019;entryDx=0;entryDy=0;entryPerimeter=0;endArrow=blockThin;endFill=0;" edge="1" parent="1" source="fc5pYNwBbescbVxhXiLX-22" target="fc5pYNwBbescbVxhXiLX-4">
          <mxGeometry relative="1" as="geometry" />
        </mxCell>
        <mxCell id="fc5pYNwBbescbVxhXiLX-28" style="edgeStyle=orthogonalEdgeStyle;rounded=0;orthogonalLoop=1;jettySize=auto;html=1;exitX=0.5;exitY=0;exitDx=0;exitDy=0;entryX=0.66;entryY=0.994;entryDx=0;entryDy=0;entryPerimeter=0;endArrow=blockThin;endFill=0;" edge="1" parent="1" source="fc5pYNwBbescbVxhXiLX-18" target="fc5pYNwBbescbVxhXiLX-4">
          <mxGeometry relative="1" as="geometry" />
        </mxCell>
        <mxCell id="fc5pYNwBbescbVxhXiLX-29" value="Main" style="swimlane;fontStyle=1;align=center;verticalAlign=top;childLayout=stackLayout;horizontal=1;startSize=26;horizontalStack=0;resizeParent=1;resizeParentMax=0;resizeLast=0;collapsible=1;marginBottom=0;whiteSpace=wrap;html=1;" vertex="1" parent="1">
          <mxGeometry x="530" y="762" width="160" height="148" as="geometry">
            <mxRectangle x="430" y="190" width="120" height="30" as="alternateBounds" />
          </mxGeometry>
        </mxCell>
        <mxCell id="fc5pYNwBbescbVxhXiLX-30" value="# csv_file: file&lt;div&gt;# keyboard_array: String&lt;/div&gt;" style="text;strokeColor=none;fillColor=none;align=left;verticalAlign=top;spacingLeft=4;spacingRight=4;overflow=hidden;rotatable=0;points=[[0,0.5],[1,0.5]];portConstraint=eastwest;whiteSpace=wrap;html=1;" vertex="1" parent="fc5pYNwBbescbVxhXiLX-29">
          <mxGeometry y="26" width="160" height="44" as="geometry" />
        </mxCell>
        <mxCell id="fc5pYNwBbescbVxhXiLX-31" value="" style="line;strokeWidth=1;fillColor=none;align=left;verticalAlign=middle;spacingTop=-1;spacingLeft=3;spacingRight=3;rotatable=0;labelPosition=right;points=[];portConstraint=eastwest;strokeColor=inherit;" vertex="1" parent="fc5pYNwBbescbVxhXiLX-29">
          <mxGeometry y="70" width="160" height="8" as="geometry" />
        </mxCell>
        <mxCell id="fc5pYNwBbescbVxhXiLX-32" value="- readCSV(): void&lt;div&gt;- playSound(): void&lt;/div&gt;&lt;div&gt;&lt;div&gt;&lt;br&gt;&lt;/div&gt;&lt;/div&gt;" style="text;strokeColor=none;fillColor=none;align=left;verticalAlign=top;spacingLeft=4;spacingRight=4;overflow=hidden;rotatable=0;points=[[0,0.5],[1,0.5]];portConstraint=eastwest;whiteSpace=wrap;html=1;" vertex="1" parent="fc5pYNwBbescbVxhXiLX-29">
          <mxGeometry y="78" width="160" height="70" as="geometry" />
        </mxCell>
        <mxCell id="fc5pYNwBbescbVxhXiLX-38" style="edgeStyle=orthogonalEdgeStyle;rounded=0;orthogonalLoop=1;jettySize=auto;html=1;exitX=1;exitY=0.5;exitDx=0;exitDy=0;entryX=0.75;entryY=0;entryDx=0;entryDy=0;dashed=1;endArrow=openThin;endFill=0;" edge="1" parent="1" source="fc5pYNwBbescbVxhXiLX-4" target="fc5pYNwBbescbVxhXiLX-29">
          <mxGeometry relative="1" as="geometry">
            <Array as="points">
              <mxPoint x="920" y="495" />
              <mxPoint x="920" y="720" />
              <mxPoint x="650" y="720" />
            </Array>
          </mxGeometry>
        </mxCell>
        <mxCell id="fc5pYNwBbescbVxhXiLX-43" value="" style="edgeStyle=orthogonalEdgeStyle;rounded=0;orthogonalLoop=1;jettySize=auto;html=1;endArrow=blockThin;endFill=0;" edge="1" parent="1" source="fc5pYNwBbescbVxhXiLX-39" target="fc5pYNwBbescbVxhXiLX-32">
          <mxGeometry relative="1" as="geometry" />
        </mxCell>
        <mxCell id="fc5pYNwBbescbVxhXiLX-39" value="Play Sound" style="swimlane;fontStyle=1;align=center;verticalAlign=top;childLayout=stackLayout;horizontal=1;startSize=26;horizontalStack=0;resizeParent=1;resizeParentMax=0;resizeLast=0;collapsible=1;marginBottom=0;whiteSpace=wrap;html=1;" vertex="1" parent="1">
          <mxGeometry x="790" y="753" width="160" height="104" as="geometry">
            <mxRectangle x="430" y="190" width="120" height="30" as="alternateBounds" />
          </mxGeometry>
        </mxCell>
        <mxCell id="fc5pYNwBbescbVxhXiLX-41" value="" style="line;strokeWidth=1;fillColor=none;align=left;verticalAlign=middle;spacingTop=-1;spacingLeft=3;spacingRight=3;rotatable=0;labelPosition=right;points=[];portConstraint=eastwest;strokeColor=inherit;" vertex="1" parent="fc5pYNwBbescbVxhXiLX-39">
          <mxGeometry y="26" width="160" height="8" as="geometry" />
        </mxCell>
        <mxCell id="fc5pYNwBbescbVxhXiLX-42" value="- convertionToSound(): void" style="text;strokeColor=none;fillColor=none;align=left;verticalAlign=top;spacingLeft=4;spacingRight=4;overflow=hidden;rotatable=0;points=[[0,0.5],[1,0.5]];portConstraint=eastwest;whiteSpace=wrap;html=1;" vertex="1" parent="fc5pYNwBbescbVxhXiLX-39">
          <mxGeometry y="34" width="160" height="70" as="geometry" />
        </mxCell>
        <mxCell id="fc5pYNwBbescbVxhXiLX-44" style="edgeStyle=orthogonalEdgeStyle;rounded=0;orthogonalLoop=1;jettySize=auto;html=1;entryX=0.869;entryY=0.011;entryDx=0;entryDy=0;entryPerimeter=0;exitX=1.023;exitY=0.193;exitDx=0;exitDy=0;exitPerimeter=0;endArrow=open;endFill=0;dashed=1;" edge="1" parent="1" source="fc5pYNwBbescbVxhXiLX-4" target="fc5pYNwBbescbVxhXiLX-39">
          <mxGeometry relative="1" as="geometry" />
        </mxCell>
        <mxCell id="fc5pYNwBbescbVxhXiLX-45" value="Convertion File" style="swimlane;fontStyle=1;align=center;verticalAlign=top;childLayout=stackLayout;horizontal=1;startSize=26;horizontalStack=0;resizeParent=1;resizeParentMax=0;resizeLast=0;collapsible=1;marginBottom=0;whiteSpace=wrap;html=1;" vertex="1" parent="1">
          <mxGeometry x="270" y="740" width="240" height="104" as="geometry">
            <mxRectangle x="430" y="190" width="120" height="30" as="alternateBounds" />
          </mxGeometry>
        </mxCell>
        <mxCell id="fc5pYNwBbescbVxhXiLX-46" value="" style="line;strokeWidth=1;fillColor=none;align=left;verticalAlign=middle;spacingTop=-1;spacingLeft=3;spacingRight=3;rotatable=0;labelPosition=right;points=[];portConstraint=eastwest;strokeColor=inherit;" vertex="1" parent="fc5pYNwBbescbVxhXiLX-45">
          <mxGeometry y="26" width="240" height="8" as="geometry" />
        </mxCell>
        <mxCell id="fc5pYNwBbescbVxhXiLX-47" value="- convertToGuitartab(file: String): void&lt;div&gt;- convertToChord(&lt;span style=&quot;background-color: initial;&quot;&gt;file: String&lt;/span&gt;&lt;span style=&quot;background-color: initial;&quot;&gt;): void&lt;/span&gt;&lt;/div&gt;&lt;div&gt;- convertToSheet(&lt;span style=&quot;background-color: initial;&quot;&gt;file: String&lt;/span&gt;&lt;span style=&quot;background-color: initial;&quot;&gt;): void&lt;/span&gt;&lt;/div&gt;" style="text;strokeColor=none;fillColor=none;align=left;verticalAlign=top;spacingLeft=4;spacingRight=4;overflow=hidden;rotatable=0;points=[[0,0.5],[1,0.5]];portConstraint=eastwest;whiteSpace=wrap;html=1;" vertex="1" parent="fc5pYNwBbescbVxhXiLX-45">
          <mxGeometry y="34" width="240" height="70" as="geometry" />
        </mxCell>
        <mxCell id="fc5pYNwBbescbVxhXiLX-48" style="edgeStyle=orthogonalEdgeStyle;rounded=0;orthogonalLoop=1;jettySize=auto;html=1;exitX=0;exitY=0.5;exitDx=0;exitDy=0;entryX=0.099;entryY=0.008;entryDx=0;entryDy=0;entryPerimeter=0;endArrow=open;endFill=0;dashed=1;" edge="1" parent="1" source="fc5pYNwBbescbVxhXiLX-2" target="fc5pYNwBbescbVxhXiLX-45">
          <mxGeometry relative="1" as="geometry" />
        </mxCell>
        <mxCell id="fc5pYNwBbescbVxhXiLX-50" style="edgeStyle=orthogonalEdgeStyle;rounded=0;orthogonalLoop=1;jettySize=auto;html=1;exitX=0.377;exitY=1.05;exitDx=0;exitDy=0;entryX=0.25;entryY=0;entryDx=0;entryDy=0;exitPerimeter=0;dashed=1;endArrow=open;endFill=0;startArrow=openThin;startFill=0;" edge="1" parent="1" source="fc5pYNwBbescbVxhXiLX-11" target="fc5pYNwBbescbVxhXiLX-45">
          <mxGeometry relative="1" as="geometry">
            <Array as="points">
              <mxPoint x="390" y="700" />
              <mxPoint x="330" y="700" />
            </Array>
          </mxGeometry>
        </mxCell>
        <mxCell id="fc5pYNwBbescbVxhXiLX-52" style="edgeStyle=orthogonalEdgeStyle;rounded=0;orthogonalLoop=1;jettySize=auto;html=1;exitX=0.21;exitY=1.021;exitDx=0;exitDy=0;exitPerimeter=0;dashed=1;endArrow=openThin;endFill=0;startArrow=openThin;startFill=0;" edge="1" parent="1" source="fc5pYNwBbescbVxhXiLX-25" target="fc5pYNwBbescbVxhXiLX-45">
          <mxGeometry relative="1" as="geometry">
            <Array as="points">
              <mxPoint x="564" y="720" />
              <mxPoint x="390" y="720" />
            </Array>
          </mxGeometry>
        </mxCell>
        <mxCell id="fc5pYNwBbescbVxhXiLX-53" style="edgeStyle=orthogonalEdgeStyle;rounded=0;orthogonalLoop=1;jettySize=auto;html=1;exitX=0.202;exitY=1.028;exitDx=0;exitDy=0;exitPerimeter=0;endArrow=openThin;endFill=0;dashed=1;startArrow=openThin;startFill=0;" edge="1" parent="1" source="fc5pYNwBbescbVxhXiLX-21">
          <mxGeometry relative="1" as="geometry">
            <mxPoint x="510" y="750" as="targetPoint" />
            <Array as="points">
              <mxPoint x="762" y="700" />
              <mxPoint x="620" y="700" />
              <mxPoint x="620" y="750" />
            </Array>
          </mxGeometry>
        </mxCell>
      </root>
    </mxGraphModel>
  </diagram>
</mxfile>
